Coordinates
version=1
nRows=5
nColumns=42
inDegrees=yes

Units are S.I. units (second, meters, Newtons, ...)
If the header above contains a line with 'inDegrees', this indicates whether rotational values are in degrees (yes) or radians (no).

endheader
time	pelvis_tilt	pelvis_list	pelvis_rotation	pelvis_tx	pelvis_ty	pelvis_tz	hip_flexion_r	hip_adduction_r	hip_rotation_r	knee_angle_r	knee_adduction_r	knee_angle_r_beta	ankle_angle_r	subtalar_angle_r	mtp_angle_r	hip_flexion_l	hip_adduction_l	hip_rotation_l	knee_angle_l	knee_adduction_l	knee_angle_l_beta	ankle_angle_l	subtalar_angle_l	mtp_angle_l	lumbar_extension	lumbar_bending	lumbar_rotation	arm_flex_r	arm_add_r	arm_rot_r	elbow_flex_r	pro_sup_r	wrist_flex_r	wrist_dev_r	arm_flex_l	arm_add_l	arm_rot_l	elbow_flex_l	pro_sup_l	wrist_flex_l	wrist_dev_l
      0.40000000	     12.56232508	      2.18235675	      4.61582791	     -0.64604019	      0.92437386	     -0.22350919	    -24.91361917	      8.68827966	    -28.01956570	      1.85452471	     -3.67590566	      0.03236756	     23.16449980	     19.51391521	     -8.85221923	     18.12974477	      4.64389604	    -35.39913853	     18.13124865	    -10.84325408	      0.31644999	     18.55279451	     38.23415902	     -8.85221923	    -43.88989534	      0.60693530	     -1.20303482	      6.52767855	    -11.67583374	      7.55374515	     39.76411196	     90.00000001	      0.00000000	      0.00000000	     -5.75096675	    -10.02272428	     14.10892135	     47.13220127	     90.00000001	      0.00000000	      0.00000000
      0.41000000	     12.66366855	      2.01290047	      4.56320928	     -0.63895127	      0.92272150	     -0.22388045	    -25.67749202	      8.81338430	    -28.02570831	      1.68687694	     -3.48789773	      0.02944156	     23.42046148	     19.72917079	     -8.84118606	     18.14900618	      4.65948416	    -35.19351958	     18.45361873	    -11.05116967	      0.32207641	     18.58249177	     38.19983632	     -8.84118606	    -43.87429967	      0.58289426	     -1.15046011	      6.36879407	    -11.62321036	      7.62931658	     39.61116018	     90.00000001	      0.00000000	      0.00000000	     -5.80964041	    -10.01833199	     14.12561739	     47.03973944	     90.00000001	      0.00000000	      0.00000000
      0.42000000	     12.79255860	      1.86838868	      4.44513235	     -0.63175497	      0.92119205	     -0.22420553	    -26.37863554	      8.91235448	    -28.00797640	      1.66652270	     -3.45981845	      0.02908631	     23.62235013	     19.85543414	     -8.83531125	     18.09742670	      4.72188983	    -34.87824174	     18.86007983	    -11.35919800	      0.32917049	     18.49665026	     38.10034903	     -8.83531125	    -43.89439521	      0.49500802	     -1.04492588	      6.19567461	    -11.55381200	      7.69463926	     39.46428726	     90.00000001	      0.00000000	      0.00000000	     -5.84815713	     -9.98058636	     14.13250147	     46.95436323	     90.00000001	      0.00000000	      0.00000000
      0.43000000	     12.88607225	      1.71337325	      4.33923091	     -0.62431995	      0.91959779	     -0.22460345	    -27.11179673	      8.96409845	    -27.84105893	      1.59303123	     -3.26958235	      0.02780364	     23.94910893	     20.15530147	     -8.82219062	     18.10670801	      4.70455590	    -34.47365670	     19.56330034	    -11.60621277	      0.34144400	     18.21032219	     37.74701133	     -8.82219062	    -43.83717455	      0.41912445	     -1.00498358	      6.02283350	    -11.48934603	      7.80673374	     39.27418334	     90.00000001	      0.00000000	      0.00000000	     -5.95165172	     -9.97957240	     14.13279115	     46.81194623	     90.00000001	      0.00000000	      0.00000000
      0.44000000	     12.97346506	      1.58658541	      4.14475010	     -0.61685093	      0.91812762	     -0.22490342	    -27.71824943	      8.98904039	    -27.65814405	      1.67256943	     -3.28708780	      0.02919184	     24.24401393	     20.38910114	     -8.80561493	     18.07637578	      4.72346132	    -33.97556874	     20.29321546	    -11.89636174	      0.35418343	     17.70106319	     37.22621610	     -8.80561493	    -43.78712612	      0.26435522	     -0.88810012	      5.85102156	    -11.43049060	      7.91863394	     39.06132528	     90.00000001	      0.00000000	      0.00000000	     -6.03098356	     -9.96216008	     14.11558315	     46.65574030	     90.00000001	      0.00000000	      0.00000000
